<?xml version="1.0" encoding="UTF-8"?><svg id="Capa_2" xmlns="http://www.w3.org/2000/svg" viewBox="0 0 180.26 183.29"><defs><style>.cls-1{fill:#00b4d8;stroke-width:0px;}</style></defs><g id="Capa_1-2"><path class="cls-1" d="M167.01,28.31c7.32,0,13.25-5.93,13.25-13.25v-1.83c0-7.31-5.93-13.24-13.24-13.24h-78.21c-4.38,0-8.26,2.13-10.66,5.4-.12.14-.22.28-.31.44-.12.18-.23.35-.34.53-1.13,1.81-1.81,3.92-1.91,6.19,0,.23-.01.45-.01.68v87.01c0,7.1,5.76,12.86,12.85,12.86h2.61c7.1,0,12.86-5.76,12.86-12.86v-23.18c11.65-7.84,25.42-9.23,34.84-3.2,13.8,8.83,11.92,29.49,9.24,39.18-6.51,23.51-33.62,39.64-59.26,39.01-38.87-.96-57.31-40-58.82-43.96-3.08-8.06-3.94-15.48-4.09-21.04,0-.04,0-.09,0-.13.1-1.55.21-3.09.31-4.71,3.09.35,5.68-.72,8.28-1.94,2.83-1.32,5.41-3.02,7.72-5.08,2.29-2.04,4.25-4.39,6-6.94,2.05-2.99,3.67-6.21,4.88-9.56,1.3-3.59,2.24-7.33,3.09-11.06,1.09-4.75,1.54-9.6,1.7-14.46.13-4.09.02-8.19-.12-12.29-.09-2.75-.43-5.5-.65-8.23-.7,1.07-1.24,2.18-2.03,3.07-1.9,2.12-4.17,3.84-6.65,5.2-6.58,3.61-13.2,7.12-19.82,10.65-4.4,2.34-8.94,4.44-12.97,7.42-3.59,2.66-6.42,5.98-8.52,9.93-2.03,3.82-3.16,7.9-3.37,12.2-.14,2.84.13,5.66,1.54,8.24,1.93,3.56,4.98,5.94,8.33,8.01.15.09.34.1.5.15.86-21.52,12.73-34.98,31.38-43.53.06.12.04.19-.01.22-4.03,2.57-7.77,5.48-11.15,8.89-3.03,3.07-5.67,6.43-7.71,10.2-1.37,2.55-2.62,5.21-3.5,7.96-1.15,3.6-2.03,7.31-2.74,11.02-.54,2.83-.69,5.75-.92,8.63-.24,3.01-.37,6.03-.56,9.04,0,.03,0,.06,0,.09-.78.19-1.61.32-2.5.37-6.45.35-12.82-3.86-16.08-10.66-.71,10.17-.46,27.52,7.83,46.18,11.91,26.81,39.7,54.74,77.84,57.18,40.73,2.6,82.68-24.63,91.74-63.05,5.26-22.3,1.91-58.82-24.66-73.29-20.83-11.35-44.1-2.69-49.12-.69v-17.78h63.12Z"/></g></svg>