<?xml version="1.0" encoding="UTF-8"?><svg id="Capa_2" xmlns="http://www.w3.org/2000/svg" viewBox="0 0 436.12 166.52"><defs><style>.cls-1{fill:#00b4d8;stroke-width:0px;}</style></defs><g id="Capa_1-2"><path class="cls-1" d="M151.73,25.72c6.65,0,12.03-5.39,12.03-12.03v-1.66c0-6.64-5.38-12.03-12.03-12.03h-71.05c-3.98,0-7.5,1.93-9.68,4.91-.11.13-.2.26-.29.4-.11.16-.21.32-.31.48-1.03,1.65-1.65,3.56-1.73,5.62,0,.21-.01.41-.01.62v79.05c0,6.45,5.23,11.68,11.68,11.68h2.37c6.45,0,11.68-5.23,11.68-11.68v-21.06c10.58-7.12,23.09-8.39,31.66-2.91,12.53,8.02,10.83,26.79,8.39,35.59-5.91,21.35-30.54,36.01-53.83,35.44-35.31-.88-52.06-36.34-53.44-39.94-2.79-7.33-3.58-14.06-3.71-19.11,0-.04,0-.08,0-.12.09-1.4.19-2.81.28-4.28,2.8.32,5.16-.66,7.52-1.76,2.57-1.2,4.92-2.74,7.02-4.62,2.08-1.86,3.86-3.99,5.45-6.31,1.87-2.72,3.33-5.64,4.44-8.69,1.18-3.26,2.03-6.66,2.81-10.04.99-4.31,1.4-8.73,1.54-13.14.12-3.72.02-7.45-.11-11.16-.09-2.5-.39-4.99-.59-7.47-.64.98-1.13,1.98-1.85,2.79-1.72,1.93-3.79,3.49-6.04,4.73-5.97,3.28-12,6.47-18.01,9.67-3.99,2.13-8.12,4.03-11.78,6.74-3.26,2.41-5.83,5.43-7.74,9.02-1.85,3.47-2.87,7.18-3.06,11.08-.13,2.58.12,5.14,1.4,7.49,1.75,3.23,4.52,5.4,7.57,7.28.13.08.31.09.45.14.78-19.55,11.57-31.78,28.51-39.55.06.11.03.17,0,.2-3.66,2.34-7.06,4.97-10.13,8.07-2.76,2.79-5.15,5.84-7,9.27-1.25,2.31-2.38,4.73-3.18,7.23-1.04,3.27-1.84,6.64-2.49,10.02-.49,2.57-.63,5.22-.84,7.84-.22,2.73-.34,5.48-.51,8.22,0,.03,0,.06,0,.08-.71.17-1.47.29-2.27.33-5.86.32-11.65-3.51-14.61-9.69-.65,9.24-.42,25,7.11,41.95,10.82,24.35,36.07,49.74,70.72,51.95,37.01,2.36,75.12-22.37,83.35-57.28,4.78-20.26,1.73-53.44-22.4-66.58-18.93-10.31-40.07-2.44-44.62-.63v-16.15h57.35Z"/><path class="cls-1" d="M201.19,31.34h44.35c.99,0,1.78.8,1.78,1.78v7.73c0,1.9-2.2,2.97-3.69,1.79h0c-.31-.25-.7-.38-1.11-.38h-24.57c-.99,0-1.78.8-1.78,1.78v6.84c0,.99.8,1.78,1.78,1.78h14.73c.41,0,.82-.14,1.14-.41l.58-.48c1.16-.96,2.92-.13,2.92,1.38v9.4c0,1.51-1.76,2.34-2.92,1.38l-.58-.48c-.32-.26-.72-.41-1.14-.41h-14.73c-.99,0-1.78.8-1.78,1.78v14.76c0,.44.16.87.46,1.19l.52.58c1.03,1.15.22,2.98-1.33,2.98h-14.62c-1.51,0-2.34-1.76-1.37-2.93l.45-.54c.27-.32.41-.72.41-1.14v-43.76c0-.41-.14-.82-.41-1.14l-.48-.58c-.96-1.16-.13-2.92,1.38-2.92Z"/><path class="cls-1" d="M254.3,31.34h14.7c1.5,0,2.33,1.75,1.38,2.91l-.33.41c-.26.32-.4.72-.4,1.13v44.14c0,.41.14.81.4,1.13l.33.41c.95,1.16.12,2.91-1.38,2.91h-14.7c-1.51,0-2.34-1.76-1.38-2.92l.48-.58c.26-.32.41-.72.41-1.14v-43.77c0-.41-.14-.82-.41-1.14l-.48-.58c-.96-1.16-.13-2.92,1.38-2.92Z"/><path class="cls-1" d="M278.87,31.34h15.42c1.48,0,2.32,1.71,1.41,2.88l-.19.24c-.4.52-.49,1.21-.23,1.81l10.63,24.31c.62,1.41,2.61,1.43,3.26.03l11.24-24.42c.29-.63.19-1.38-.27-1.91h0c-.99-1.16-.17-2.94,1.36-2.94h14.75v.18l-24.11,51.39c-.29.63-.92,1.03-1.62,1.03h-8.55c-.69,0-1.32-.4-1.61-1.02l-23.1-49.03c-.56-1.18.31-2.54,1.61-2.54Z"/><path class="cls-1" d="M343.7,31.34h44.35c.99,0,1.78.8,1.78,1.78v8.76c0,1.49-1.72,2.32-2.89,1.4l-.8-.63c-.31-.25-.7-.38-1.11-.38h-24.57c-.99,0-1.78.8-1.78,1.78v6.84c0,.99.8,1.78,1.78,1.78h14.73c.41,0,.82-.14,1.14-.41l.58-.48c1.16-.96,2.92-.13,2.92,1.38v9.4c0,1.51-1.76,2.34-2.92,1.38l-.58-.48c-.32-.26-.72-.41-1.14-.41h-14.73c-.99,0-1.78.8-1.78,1.78v6.84c0,.99.8,1.78,1.78,1.78h24.57c.4,0,.79-.14,1.11-.38l.8-.63c1.17-.92,2.89-.09,2.89,1.4v8.76c0,.99-.8,1.78-1.78,1.78h-44.35c-1.51,0-2.34-1.76-1.38-2.92l.48-.58c.26-.32.41-.72.41-1.14v-43.77c0-.41-.14-.82-.41-1.14l-.48-.58c-.96-1.16-.13-2.92,1.38-2.92Z"/><path class="cls-1" d="M201.19,96h44.35c.99,0,1.78.8,1.78,1.78v7.73c0,1.9-2.2,2.97-3.69,1.79h0c-.31-.25-.7-.38-1.11-.38h-24.57c-.99,0-1.78.8-1.78,1.78v6.84c0,.99.8,1.78,1.78,1.78h14.73c.41,0,.82-.14,1.14-.41l.58-.48c1.16-.96,2.92-.13,2.92,1.38v9.4c0,1.51-1.76,2.34-2.92,1.38l-.58-.48c-.32-.26-.72-.41-1.14-.41h-14.73c-.99,0-1.78.8-1.78,1.78v14.76c0,.44.16.87.46,1.19l.52.58c1.03,1.15.22,2.98-1.33,2.98h-14.62c-1.51,0-2.34-1.76-1.37-2.93l.45-.54c.27-.32.41-.72.41-1.14v-43.76c0-.41-.14-.82-.41-1.14l-.48-.58c-.96-1.16-.13-2.92,1.38-2.92Z"/><path class="cls-1" d="M280.44,95.16c19.99,0,29.98,9.19,29.98,27.56s-9.81,27.2-29.43,27.2-30.75-9.26-30.75-27.78,10.07-26.98,30.2-26.98ZM266.55,122.03c0,11.12,4.77,16.68,14.3,16.68,8.85,0,13.27-5.33,13.27-15.98s-4.64-16.35-13.93-16.35-13.64,5.22-13.64,15.65Z"/><path class="cls-1" d="M343.49,95.16c19.99,0,29.98,9.19,29.98,27.56s-9.81,27.2-29.43,27.2-30.75-9.26-30.75-27.78,10.07-26.98,30.2-26.98ZM329.6,122.03c0,11.12,4.77,16.68,14.3,16.68,8.85,0,13.27-5.33,13.27-15.98s-4.64-16.35-13.93-16.35-13.64,5.22-13.64,15.65Z"/><path class="cls-1" d="M380.72,146.08l.45-.54c.27-.32.41-.72.41-1.14v-43.76c0-.41-.14-.82-.41-1.14l-.48-.58c-.96-1.16-.13-2.92,1.38-2.92h24.58c19.65,0,29.47,8.91,29.47,26.72s-9.7,26.28-29.1,26.28h-24.93c-1.51,0-2.34-1.76-1.37-2.93ZM397.41,136.26c0,.99.8,1.78,1.78,1.78h5.77c9.8,0,14.7-5.13,14.7-15.4s-5.02-15.62-15.07-15.62h-5.4c-.99,0-1.78.8-1.78,1.78v27.44Z"/></g></svg>